<svg width="700" height="160" viewBox="0 0 700 160" xmlns="http://www.w3.org/2000/svg">
  <defs>
    <linearGradient id="bg2" x1="0" y1="0" x2="160" y2="160" gradientUnits="userSpaceOnUse">
      <stop offset="0" stop-color="#4A6B32"/>
      <stop offset="1" stop-color="#2C3F1E"/>
    </linearGradient>
  </defs>
  <rect x="0" y="0" width="160" height="160" rx="36" fill="url(#bg2)"/>
  <line x1="80" y1="132" x2="80" y2="42" stroke="#FBF8F0" stroke-width="5" stroke-linecap="round"/>
  <g fill="#FBF8F0">
    <ellipse cx="68" cy="56" rx="6" ry="11" transform="rotate(-35 68 56)"/>
    <ellipse cx="92" cy="56" rx="6" ry="11" transform="rotate(35 92 56)"/>
    <ellipse cx="65" cy="76" rx="6" ry="11" transform="rotate(-35 65 76)"/>
    <ellipse cx="95" cy="76" rx="6" ry="11" transform="rotate(35 95 76)"/>
    <ellipse cx="63" cy="96" rx="6" ry="11" transform="rotate(-35 63 96)"/>
    <ellipse cx="97" cy="96" rx="6" ry="11" transform="rotate(35 97 96)"/>
  </g>
  <path d="M111 52 L116 62 L126 67 L116 72 L111 82 L106 72 L96 67 L106 62 Z" fill="#D4A017"/>
  <text x="182" y="102" font-family="'Poppins', 'Segoe UI', sans-serif" font-size="64" font-weight="700" fill="#2C3F1E">Campo<tspan fill="#D4A017">IA</tspan></text>
</svg>
